<svg id="Layer_1" data-name="Layer 1" xmlns="http://www.w3.org/2000/svg" xmlns:xlink="http://www.w3.org/1999/xlink" viewBox="0 0 809.99 723.62"><defs><style>.cls-1{fill:none;}.cls-2{fill:#1b1464;stroke:#000;}.cls-2,.cls-3{stroke-miterlimit:10;}.cls-3{fill:#c1affa;stroke:url(#Unnamed_Pattern);}</style><pattern id="Unnamed_Pattern" data-name="Unnamed Pattern" width="809.99" height="723.62" patternUnits="userSpaceOnUse" viewBox="0 0 809.99 723.62"><rect class="cls-1" width="809.99" height="723.62"/><path class="cls-2" d="M.38,60.73c359.2-101.71,495.92-58.17,550,10,59.79,75.35,17.37,179.24,113,319,76.1,111.2,149.25,113.06,146,161-7.71,113.95-432.12,265.31-702,98a451.47,451.47,0,0,1-107-93"/></pattern></defs><title>bg2</title><path class="cls-3" d="M472.4,74.86c359.2-101.7,495.92-58.16,550,10,59.79,75.35,17.37,179.24,113,319,76.1,111.21,149.25,113.07,146,161-7.71,114-432.12,265.31-702,98a451.24,451.24,0,0,1-107-93" transform="translate(-472.02 -14.13)"/></svg>