<svg xmlns="http://www.w3.org/2000/svg" viewBox="0 0 985.34 663.31"><defs><style>.cls-1{isolation:isolate;}.cls-2{fill:#2e2665;}.cls-3{fill:#493896;}.cls-4{fill:#595fab;}.cls-5{fill:#6367af;}.cls-6{fill:#45489d;}.cls-7{fill:#e9e4f1;}.cls-8{fill:#facf5b;}.cls-20,.cls-9{fill:#fff;}.cls-10{fill:#beaed5;}.cls-11{fill:#fabaac;}.cls-12{fill:#443694;}.cls-13{fill:#302767;}.cls-14{fill:#4d3b97;}.cls-15{fill:#06213a;opacity:0.5;mix-blend-mode:soft-light;}.cls-16{fill:#ef466c;}.cls-17{fill:#f0587b;}.cls-18{fill:#392e80;}.cls-19{fill:#fdc47f;}.cls-20{opacity:0.1;}.cls-21{fill:#4d3d98;}.cls-22{fill:none;stroke:#f3839e;stroke-linecap:round;stroke-width:1.14px;}.cls-22,.cls-26{stroke-miterlimit:10;}.cls-23{fill:#f7a18e;}.cls-24{fill:#162e55;}.cls-25{fill:#d75c40;}.cls-26{fill:#f99f4b;stroke:#010101;stroke-width:0.25px;}.cls-27{fill:#d1cde2;}</style></defs><title>man-credit1</title><g class="cls-1"><g id="Layer_1" data-name="Layer 1"><path class="cls-2" d="M1013.67,148.52v585c0,21.09-18.69,38.17-41.73,38.17H648.67c-23,0-41.71-17.08-41.71-38.17v-585c0-21.08,18.7-38.17,41.71-38.17H971.94C995,110.35,1013.67,127.44,1013.67,148.52Z" transform="translate(-28.33 -110.35)"/><path class="cls-3" d="M843.66,747.53H777c-8.61,0-15.59-6.38-15.59-14.25h0c0-7.88,7-14.26,15.59-14.26h66.69c8.61,0,15.59,6.38,15.59,14.26h0C859.25,741.15,852.27,747.53,843.66,747.53Z" transform="translate(-28.33 -110.35)"/><path class="cls-4" d="M988.54,163V681c0,10.2-9.07,18.51-20.25,18.51h-316c-11.16,0-20.25-8.31-20.25-18.51V163c0-10.23,9.09-18.51,20.25-18.51h316C979.47,144.46,988.54,152.74,988.54,163Z" transform="translate(-28.33 -110.35)"/><path class="cls-5" d="M950.56,145.35,632.07,627.72V163c0-10.23,9.09-18.51,20.25-18.51H945.89Z" transform="translate(-28.33 -110.35)"/><ellipse class="cls-6" cx="781.99" cy="261.83" rx="100.73" ry="92.13"/><path class="cls-7" d="M815.55,465.3a1.2,1.2,0,0,1-1.26-1.06,1.18,1.18,0,0,1,1.16-1.18c3.18-.14,6.4-.43,9.56-.86a1.21,1.21,0,0,1,1.39.94,1.14,1.14,0,0,1-1,1.27c-3.24.44-6.54.74-9.8.89ZM801,465h-.15c-3.26-.27-6.53-.69-9.75-1.26a1.13,1.13,0,0,1-1-1.3,1.22,1.22,0,0,1,1.43-.89c3.14.55,6.34,1,9.52,1.23a1.15,1.15,0,0,1,1.1,1.22A1.18,1.18,0,0,1,801,465Zm38.49-3.52a1.22,1.22,0,0,1-1.2-.79,1.1,1.1,0,0,1,.81-1.39c3.06-.85,6.11-1.84,9.06-2.95a1.27,1.27,0,0,1,1.59.61,1.08,1.08,0,0,1-.66,1.46c-3,1.13-6.15,2.15-9.28,3A1.25,1.25,0,0,1,839.46,461.51Zm-62.22-1.18a1.35,1.35,0,0,1-.44-.07c-3.09-1-6.17-2.12-9.13-3.37a1.08,1.08,0,0,1-.6-1.48,1.3,1.3,0,0,1,1.63-.55c2.89,1.22,5.88,2.33,8.91,3.29a1.11,1.11,0,0,1,.75,1.43A1.23,1.23,0,0,1,777.24,460.33Zm84.43-7.75a1.25,1.25,0,0,1-1.09-.55,1.06,1.06,0,0,1,.43-1.52c2.75-1.5,5.45-3.13,8-4.85a1.32,1.32,0,0,1,1.71.24,1.06,1.06,0,0,1-.27,1.56c-2.63,1.77-5.4,3.44-8.21,5A1.26,1.26,0,0,1,861.67,452.58Zm-106.22-2a1.22,1.22,0,0,1-.7-.18c-2.74-1.63-5.43-3.4-8-5.27a1.05,1.05,0,0,1-.2-1.57,1.31,1.31,0,0,1,1.72-.18c2.5,1.83,5.12,3.56,7.79,5.15a1.08,1.08,0,0,1,.36,1.55A1.26,1.26,0,0,1,755.45,450.54ZM880.9,439a1.28,1.28,0,0,1-.91-.33,1.05,1.05,0,0,1,0-1.58c2.27-2,4.47-4.21,6.53-6.45a1.3,1.3,0,0,1,1.72-.14,1.07,1.07,0,0,1,.15,1.58c-2.11,2.29-4.36,4.52-6.69,6.61A1.25,1.25,0,0,1,880.9,439Zm-144.06-2.76a1.29,1.29,0,0,1-.93-.35c-2.23-2.19-4.38-4.49-6.38-6.86a1.06,1.06,0,0,1,.23-1.57,1.3,1.3,0,0,1,1.71.21c1.95,2.31,4,4.56,6.23,6.69a1.05,1.05,0,0,1-.06,1.58A1.24,1.24,0,0,1,736.84,436.28ZM896.06,421.7a1.23,1.23,0,0,1-.67-.16A1.07,1.07,0,0,1,895,420a88.87,88.87,0,0,0,4.66-7.69,1.27,1.27,0,0,1,1.63-.51,1.09,1.09,0,0,1,.56,1.5c-1.45,2.68-3.05,5.33-4.77,7.88A1.23,1.23,0,0,1,896.06,421.7Zm-173.57-3.31a1.26,1.26,0,0,1-1.1-.57,91.3,91.3,0,0,1-4.4-8.06,1.07,1.07,0,0,1,.62-1.47,1.27,1.27,0,0,1,1.61.57,88.05,88.05,0,0,0,4.3,7.86,1.08,1.08,0,0,1-.47,1.53A1.36,1.36,0,0,1,722.49,418.39Zm183.76-16.84a1.4,1.4,0,0,1-.41-.05,1.11,1.11,0,0,1-.79-1.41,84.77,84.77,0,0,0,2.5-8.48,1.22,1.22,0,0,1,1.45-.86,1.13,1.13,0,0,1,.94,1.33,88.38,88.38,0,0,1-2.56,8.7A1.22,1.22,0,0,1,906.25,401.55Zm-193-3.69A1.21,1.21,0,0,1,712,397a84.51,84.51,0,0,1-2.15-8.78,1.12,1.12,0,0,1,1-1.29,1.23,1.23,0,0,1,1.42.9,80.71,80.71,0,0,0,2.1,8.58,1.1,1.1,0,0,1-.86,1.37A.92.92,0,0,1,713.24,397.86Zm197.6-18.11h-.12a1.15,1.15,0,0,1-1.14-1.19,85.91,85.91,0,0,0,.21-8.79l0-.37a1.18,1.18,0,0,1,1.19-1.15,1.17,1.17,0,0,1,1.25,1.09l0,.35c.08,3,0,6-.21,9A1.18,1.18,0,0,1,910.84,379.75Zm-201.19-3.93a1.12,1.12,0,0,1-1.25-1v-.18a86.17,86.17,0,0,1,.19-8.81,1.21,1.21,0,0,1,1.3-1A1.15,1.15,0,0,1,711,366a84.93,84.93,0,0,0-.19,8.6A1.25,1.25,0,0,1,709.65,375.82Zm199.89-18.61a1.18,1.18,0,0,1-1.23-.92,84.45,84.45,0,0,0-2.13-8.57,1.12,1.12,0,0,1,.85-1.38,1.25,1.25,0,0,1,1.51.78,88.57,88.57,0,0,1,2.17,8.78,1.14,1.14,0,0,1-1,1.3Zm-197.67-3.4a1.43,1.43,0,0,1-.29,0,1.12,1.12,0,0,1-.94-1.32,83.48,83.48,0,0,1,2.55-8.7,1.24,1.24,0,0,1,1.53-.73,1.1,1.1,0,0,1,.79,1.41,85.16,85.16,0,0,0-2.48,8.49A1.2,1.2,0,0,1,711.87,353.81ZM902.47,336a1.25,1.25,0,0,1-1.15-.66c-1.29-2.66-2.74-5.3-4.31-7.86a1.06,1.06,0,0,1,.46-1.52,1.29,1.29,0,0,1,1.66.42,88,88,0,0,1,4.42,8.05,1.07,1.07,0,0,1-.62,1.47A1.23,1.23,0,0,1,902.47,336Zm-182.64-3.15a1.26,1.26,0,0,1-.57-.11,1.07,1.07,0,0,1-.56-1.5c1.43-2.67,3-5.32,4.75-7.88a1.29,1.29,0,0,1,1.68-.37,1.06,1.06,0,0,1,.4,1.54c-1.68,2.5-3.24,5.09-4.64,7.7A1.24,1.24,0,0,1,719.83,332.83ZM890,316.93a1.26,1.26,0,0,1-1-.44c-1.95-2.3-4-4.55-6.24-6.68a1.05,1.05,0,0,1,.05-1.58,1.31,1.31,0,0,1,1.73,0c2.24,2.18,4.39,4.48,6.39,6.85a1,1,0,0,1-.21,1.56A1.38,1.38,0,0,1,890,316.93Zm-157-2.72a1.25,1.25,0,0,1-.81-.26,1,1,0,0,1-.16-1.57c2.1-2.29,4.34-4.52,6.67-6.62a1.3,1.3,0,0,1,1.73,0,1.05,1.05,0,0,1,0,1.58c-2.28,2-4.47,4.23-6.51,6.46A1.27,1.27,0,0,1,733.05,314.21ZM873,301.13a1.29,1.29,0,0,1-.79-.24c-2.5-1.82-5.12-3.54-7.8-5.13a1.06,1.06,0,0,1-.36-1.55,1.31,1.31,0,0,1,1.69-.33c2.74,1.63,5.43,3.4,8,5.26a1.05,1.05,0,0,1,.2,1.57A1.28,1.28,0,0,1,873,301.13ZM750.74,299a1.23,1.23,0,0,1-1-.45A1,1,0,0,1,750,297c2.62-1.77,5.39-3.45,8.2-5a1.27,1.27,0,0,1,1.67.39,1.06,1.06,0,0,1-.42,1.53c-2.75,1.5-5.44,3.13-8,4.86A1.24,1.24,0,0,1,750.74,299Zm101.55-9.5a1.47,1.47,0,0,1-.54-.1c-2.91-1.22-5.91-2.32-8.92-3.28a1.08,1.08,0,0,1-.75-1.42,1.25,1.25,0,0,1,1.55-.69c3.08,1,6.16,2.11,9.14,3.36a1.08,1.08,0,0,1,.6,1.48A1.23,1.23,0,0,1,852.29,289.51Zm-80.42-1.39a1.24,1.24,0,0,1-1.16-.69,1.09,1.09,0,0,1,.67-1.46c3-1.14,6.15-2.16,9.27-3a1.23,1.23,0,0,1,1.52.75,1.1,1.1,0,0,1-.81,1.39c-3.05.84-6.09,1.84-9.05,2.95A1.12,1.12,0,0,1,771.87,288.12Zm57.29-5.36a1.15,1.15,0,0,1-.26,0c-3.13-.55-6.34-.95-9.52-1.22a1.15,1.15,0,0,1-1.11-1.21,1.21,1.21,0,0,1,1.33-1c3.26.27,6.54.69,9.75,1.24a1.14,1.14,0,0,1,1,1.31A1.2,1.2,0,0,1,829.16,282.76Zm-33.9-.57a1.18,1.18,0,0,1-1.24-.95,1.14,1.14,0,0,1,1-1.27c3.23-.44,6.52-.75,9.79-.91h0a1.12,1.12,0,1,1,.09,2.24c-3.19.15-6.41.45-9.56.88Z" transform="translate(-28.33 -110.35)"/><ellipse class="cls-8" cx="781.99" cy="358.12" rx="22.76" ry="20.82"/><path class="cls-6" d="M809.28,478.33,799.14,470a1.78,1.78,0,0,1-.15-2.67,2.2,2.2,0,0,1,2.92-.14l6.93,5.72L820,460.54a2.2,2.2,0,0,1,2.91-.25,1.79,1.79,0,0,1,.28,2.66Z" transform="translate(-28.33 -110.35)"/><path class="cls-9" d="M866.5,637.63h5V627.8h-4.13v-2.45a14,14,0,0,0,5.27-1.55h3.17v13.83h4.23v3.19H866.5Z" transform="translate(-28.33 -110.35)"/><path class="cls-9" d="M883.4,632.24c0-5.8,2.85-8.76,7.16-8.76s7.15,3,7.15,8.76-2.85,8.9-7.15,8.9S883.4,638,883.4,632.24Zm10.47,0c0-4.42-1.47-5.71-3.31-5.71s-3.32,1.29-3.32,5.71,1.47,5.85,3.32,5.85S893.87,636.66,893.87,632.24Zm-5.51-.06a2.2,2.2,0,1,1,2.2,2.05A2,2,0,0,1,888.36,632.18Z" transform="translate(-28.33 -110.35)"/><path class="cls-9" d="M901,632.24c0-5.8,2.84-8.76,7.15-8.76s7.15,3,7.15,8.76-2.84,8.9-7.15,8.9S901,638,901,632.24Zm10.46,0c0-4.42-1.47-5.71-3.31-5.71s-3.31,1.29-3.31,5.71,1.46,5.85,3.31,5.85S911.45,636.66,911.45,632.24Zm-5.51-.06a2.2,2.2,0,1,1,2.2,2.05A2,2,0,0,1,905.94,632.18Z" transform="translate(-28.33 -110.35)"/><path class="cls-9" d="M917.44,638.11l5.47-4.65,1.49,1.27-4.74,5.34Zm.22-10.17a4.35,4.35,0,1,1,8.7,0,4.35,4.35,0,1,1-8.7,0Zm5.74,0c0-1.83-.66-2.35-1.39-2.35s-1.39.52-1.39,2.35.66,2.41,1.39,2.41S923.4,629.76,923.4,627.94Zm1.69,8.67a4.35,4.35,0,1,1,8.7,0,4.35,4.35,0,1,1-8.7,0Zm2-7.17,4.74-5.34,2.22,2-5.46,4.65Zm3.74,7.17c0-1.83-.66-2.35-1.39-2.35s-1.39.52-1.39,2.35.66,2.41,1.39,2.41S930.83,638.43,930.83,636.61Z" transform="translate(-28.33 -110.35)"/><path class="cls-2" d="M941.2,594.23a9.72,9.72,0,0,1-3.25,7.2,11.72,11.72,0,0,1-7.86,3H690.52c-6.13,0-11.09-4.54-11.09-10.17a9.73,9.73,0,0,1,3.25-7.17,11.57,11.57,0,0,1,7.84-3H930.09C936.22,584.09,941.2,588.63,941.2,594.23Z" transform="translate(-28.33 -110.35)"/><rect class="cls-4" x="691.62" y="473.75" width="2.44" height="20.31"/><rect class="cls-4" x="736.66" y="473.75" width="2.44" height="20.31"/><rect class="cls-4" x="781.7" y="473.75" width="2.44" height="20.31"/><rect class="cls-4" x="826.76" y="473.75" width="2.44" height="20.31"/><rect class="cls-4" x="871.79" y="473.75" width="2.44" height="20.31"/><path class="cls-10" d="M180.18,761.2c0,6.88-34,12.45-75.93,12.45s-75.92-5.57-75.92-12.45,34-12.46,75.92-12.46S180.18,754.32,180.18,761.2Z" transform="translate(-28.33 -110.35)"/><path class="cls-10" d="M359.53,761.2c0,6.88-34,12.45-75.92,12.45s-75.92-5.57-75.92-12.45,34-12.46,75.92-12.46S359.53,754.32,359.53,761.2Z" transform="translate(-28.33 -110.35)"/><path class="cls-2" d="M158.73,762H48.28c-1.37-4.36-2.78-13,4.87-18.56,10.54-7.72,61.28-24,61.28-24l36.76-1.17S165.72,750.13,158.73,762Z" transform="translate(-28.33 -110.35)"/><path class="cls-11" d="M152,690.51l-.42,30.15s-6.77,7.44-19.13,7.44a22.13,22.13,0,0,1-18.07-8.6l1.7-28.61Z" transform="translate(-28.33 -110.35)"/><path class="cls-12" d="M71.73,746.83a2.32,2.32,0,0,1-2.42-2.21v-9.28a2.43,2.43,0,0,1,4.84,0v9.28A2.33,2.33,0,0,1,71.73,746.83Z" transform="translate(-28.33 -110.35)"/><path class="cls-12" d="M86.52,746.83a2.33,2.33,0,0,1-2.42-2.21V730.71a2.43,2.43,0,0,1,4.84,0v13.91A2.32,2.32,0,0,1,86.52,746.83Z" transform="translate(-28.33 -110.35)"/><path class="cls-2" d="M235.05,762H345.5c1.38-4.36,2.78-13-4.86-18.56-10.54-7.72-61.28-24-61.28-24l-36.76-1.17S228.07,750.13,235.05,762Z" transform="translate(-28.33 -110.35)"/><path class="cls-11" d="M241.76,690.51l.42,30.15s6.76,7.44,19.12,7.44,18.07-8.6,18.07-8.6l-1.69-28.61Z" transform="translate(-28.33 -110.35)"/><path class="cls-12" d="M322.35,746.83a2.32,2.32,0,0,1-2.42-2.21v-9.28a2.42,2.42,0,0,1,4.83,0v9.28A2.32,2.32,0,0,1,322.35,746.83Z" transform="translate(-28.33 -110.35)"/><path class="cls-12" d="M307.55,746.83a2.32,2.32,0,0,1-2.41-2.21V730.71a2.42,2.42,0,0,1,4.83,0v13.91A2.32,2.32,0,0,1,307.55,746.83Z" transform="translate(-28.33 -110.35)"/><path class="cls-13" d="M136.39,440.55,100.33,691a343.82,343.82,0,0,0,37.19,2.06c20.28,0,28.17-2.06,28.17-2.06l27.05-202,39.45,206.15s21.41,5.16,32.68,5.16,23.67-3.09,23.67-3.09L259.23,446.73Z" transform="translate(-28.33 -110.35)"/><path class="cls-14" d="M138.08,490.61a.64.64,0,0,1-.55-.29.57.57,0,0,1,.22-.81c18.57-10,14.39-38.8,14.34-39.09a.62.62,0,0,1,.55-.67.64.64,0,0,1,.73.5c0,.3,4.34,29.89-15,40.28A.64.64,0,0,1,138.08,490.61Z" transform="translate(-28.33 -110.35)"/><path class="cls-14" d="M246.84,494.22a.69.69,0,0,1-.39-.12c-13.13-8.87-7.81-37.5-7.57-38.71a.63.63,0,0,1,.74-.48.6.6,0,0,1,.53.68c-.06.29-5.42,29.12,7.07,37.57a.55.55,0,0,1,.14.82A.67.67,0,0,1,246.84,494.22Z" transform="translate(-28.33 -110.35)"/><path class="cls-14" d="M197.53,461.24a5,5,0,1,1,5.43-5A5.23,5.23,0,0,1,197.53,461.24Zm0-8.77a3.81,3.81,0,1,0,4.15,3.79A4,4,0,0,0,197.53,452.47Z" transform="translate(-28.33 -110.35)"/><path class="cls-15" d="M686.27,197.32V417.87c0,9.8-8.68,17.72-19.37,17.72H602.75v-256H666.9C677.59,179.6,686.27,187.52,686.27,197.32Z" transform="translate(-28.33 -110.35)"/><path class="cls-16" d="M438.44,186s-35.5,53.08-73.28,80.4-96.9,46.89-96.9,46.89l-1.69,133.48a285.17,285.17,0,0,1-60.87,2.06c-32.12-2.57-76.64-8.76-76.64-8.76S130.75,288.5,143.71,270c9.8-14,26.65-17.45,34.32-18.29,2.49-.27,4-.27,4-.27l7.36.23,33.83,1.06h.22s6.11-.42,16.3-1.77a424.48,424.48,0,0,0,73-16.53c47.35-15.46,121.16-71.13,121.16-71.13Z" transform="translate(-28.33 -110.35)"/><path class="cls-17" d="M234.44,251.66l-25.77,39.16L178,251.67c2.49-.27,4-.27,4-.27l7.36.23,19.27,26.05,14.56-25h.22S224.26,253,234.44,251.66Z" transform="translate(-28.33 -110.35)"/><polygon class="cls-9" points="174.28 158.71 178.78 151.62 185.69 158.19 195.12 142.34 178.08 137.7 161.07 141.28 174.28 158.71"/><path class="cls-2" d="M667.06,196v202c0,9-8,16.22-17.74,16.22H301.64c-9.8,0-17.74-7.26-17.74-16.22V196c0-9,7.94-16.22,17.74-16.22H649.32C659.1,179.73,667.06,187,667.06,196Z" transform="translate(-28.33 -110.35)"/><rect class="cls-18" x="285.05" y="109.25" width="222.79" height="12.91"/><path class="cls-19" d="M318.18,296.47a7.09,7.09,0,0,1-2.43-.41V284.64a7.1,7.1,0,0,1,2.43-.42h25.66a6.14,6.14,0,1,1,0,12.25Z" transform="translate(-28.33 -110.35)"/><path class="cls-19" d="M378.25,280.32v7H357.62c-1.37-5.78-7.08-10.09-13.78-10.09H318.18a8.78,8.78,0,0,0-1.9.21,10.33,10.33,0,0,1,10.05-6.9h41.34C373.53,270.57,378.25,275,378.25,280.32Z" transform="translate(-28.33 -110.35)"/><path class="cls-19" d="M357.31,294.32h20.94v9c0,5.36-4.72,9.75-10.58,9.75H326.33c-5.86,0-10.58-4.39-10.58-9.75v-.07a14.24,14.24,0,0,0,2.43.21h25.66C350.16,303.44,355.56,299.61,357.31,294.32Z" transform="translate(-28.33 -110.35)"/><rect class="cls-18" x="285.05" y="224.51" width="309.49" height="17.4"/><rect class="cls-18" x="469.48" y="257.01" width="125.07" height="16.25"/><path class="cls-20" d="M498.15,179.73C460.08,226,371.67,321,283.9,325.57V196c0-9,7.94-16.22,17.74-16.22Z" transform="translate(-28.33 -110.35)"/><rect class="cls-21" x="522.26" y="93.74" width="80.46" height="40.64" rx="10"/><path class="cls-11" d="M273,427.92s35.22,16.23,39.16,12.63-3.1-5.67-3.1-5.67,10.15,4.63,12.4,1.8-7.61-8.5-7.61-8.5,13.53,5.15,15.5,1.28-21.13-11.59-21.13-11.59,18.31,3.61,19.16,0-15.5-7.22-15.5-7.22,9-1.54,7.05-6.18S284,403.7,284,403.7Z" transform="translate(-28.33 -110.35)"/><path class="cls-17" d="M153.3,261.06s19.44,12,13.94,42.91c0,0-10.56,33.63,16.06,49.86S286,402.54,286,402.54l-13.52,26.28S164.71,412.59,138.08,379,116.53,288.51,153.3,261.06Z" transform="translate(-28.33 -110.35)"/><path class="cls-22" d="M153.3,261.06s19.44,12,13.94,42.91a57,57,0,0,0-1.85,20.11" transform="translate(-28.33 -110.35)"/><path class="cls-11" d="M433.92,163.27s.63,35.95,8.24,35.95,3.59-21.84,3.59-21.84S447,201,453.36,200.76s2.75-25.31,2.75-25.31,2.11,24.73,8.45,24.35.63-25.51.63-25.51,3,19.9,9.72,19.32,4.86-30.34-.84-32.47-15.85-4.44-26-2.51S433.92,163.27,433.92,163.27Z" transform="translate(-28.33 -110.35)"/><path class="cls-11" d="M223.45,196.26v56.43s-2.81,4.11-20,4.11S184,252.69,184,252.69V196.26Z" transform="translate(-28.33 -110.35)"/><path class="cls-23" d="M223.45,224.8v17c-2.2-.11-4.67-.24-7.4-.46-35.07-2.7-29-45-29-45Z" transform="translate(-28.33 -110.35)"/><path class="cls-11" d="M259.23,182.6c-.84-4.82-5.91-4.52-7.88-4.21v-8.16a28.36,28.36,0,0,0-11.41-22.45,33.89,33.89,0,0,0-20.73-6.92c-17.72,0-32.11,13.13-32.11,29.37v8.14a11.67,11.67,0,0,0-5.06-1.2c-6.07,0-9.31,5.05-7.95,10.64,1,4,3.72,7.3,9.84,8.72a29.46,29.46,0,0,0,3.17.53v7.19c0,16.21,14.39,29.37,32.11,29.37s32.14-13.16,32.14-29.37V191.67C253.84,190.6,260.08,187.41,259.23,182.6Z" transform="translate(-28.33 -110.35)"/><path class="cls-24" d="M257.26,128.1c-2.54-5.42-11.83,3.87-11.83,3.87s3.65-8.25,1-10.58-9.58,3.34-9.58,3.34-9.45-5.9-26.5-2.19c-16.08,3.54-21.26,23.89-21.77,26.1a9.83,9.83,0,0,0-2.44-.31c-7.16,0-13,7.37-13,16.48s7.21,19.2,14.36,19.2,11.54-10.08,11.54-19.2a21.07,21.07,0,0,0-.12-2.14c4,1.39,9.43,2.27,16.9,2.14,11-.2,19.33-1.46,25.69-3.43a25.05,25.05,0,0,0,9.81,11.2v-2.35a27.1,27.1,0,0,0-2.68-11.74C266.59,149.06,259.09,132,257.26,128.1Z" transform="translate(-28.33 -110.35)"/><path class="cls-24" d="M251.35,204.25c0,16.21-14.39,29.37-32.14,29.37s-32.11-13.16-32.11-29.37V178.37l7.47,1.9s4.09,30,36.21,29.64C246.17,209.73,251.35,204.25,251.35,204.25Z" transform="translate(-28.33 -110.35)"/><path class="cls-25" d="M184.64,189.14c-2.75,0-4.71-.59-5.83-1.74a3.29,3.29,0,0,1-.94-2.73.36.36,0,0,1,.42-.27.34.34,0,0,1,.3.38,2.64,2.64,0,0,0,.77,2.19c1.09,1.11,3.25,1.63,6.25,1.48h0a.35.35,0,0,1,.36.31.34.34,0,0,1-.34.35Z" transform="translate(-28.33 -110.35)"/><path class="cls-25" d="M251.92,185.83h-.38a.36.36,0,0,1-.35-.35.35.35,0,0,1,.38-.32,4.56,4.56,0,0,0,3.35-.92,3,3,0,0,0,.92-2.21.35.35,0,0,1,.35-.35.37.37,0,0,1,.38.32,3.69,3.69,0,0,1-1.14,2.7A5,5,0,0,1,251.92,185.83Z" transform="translate(-28.33 -110.35)"/><path class="cls-25" d="M218,193.42a5,5,0,0,1-3.75-1.45c-2.22-2.26-1.76-6.38-1.74-6.56a.82.82,0,0,1,.93-.68.79.79,0,0,1,.75.85s-.4,3.61,1.32,5.36a3.3,3.3,0,0,0,2.49.93,3,3,0,0,0,2.35-.9c1.38-1.47,1.22-4.5,1-5.55a.77.77,0,0,1,.7-.88.83.83,0,0,1,1,.64c0,.18.74,4.48-1.42,6.8A4.75,4.75,0,0,1,218,193.42Z" transform="translate(-28.33 -110.35)"/><path class="cls-25" d="M241.84,193.42a5,5,0,0,1-3.75-1.45c-2.22-2.26-1.76-6.38-1.74-6.56a.81.81,0,0,1,.93-.68.79.79,0,0,1,.75.85s-.4,3.61,1.32,5.36a3.3,3.3,0,0,0,2.49.93,3,3,0,0,0,2.35-.9c1.38-1.47,1.22-4.5,1-5.55a.77.77,0,0,1,.7-.88.84.84,0,0,1,1,.64c0,.18.74,4.48-1.42,6.8A4.75,4.75,0,0,1,241.84,193.42Z" transform="translate(-28.33 -110.35)"/><path class="cls-25" d="M228.62,204.63a6.53,6.53,0,0,1-.78,0,.79.79,0,0,1-.72-.87.84.84,0,0,1,1-.66c2.07.27,4.54-1.14,4.76-1.65-.07-.68-2.34-9.35-3.76-14.62a.78.78,0,0,1,.62-.94.86.86,0,0,1,1,.57c.89,3.3,3.79,14.16,3.79,15.07a2,2,0,0,1-.93,1.46A8.7,8.7,0,0,1,228.62,204.63Z" transform="translate(-28.33 -110.35)"/><path class="cls-24" d="M208.94,182.8a1.24,1.24,0,0,1-1-.51,1.06,1.06,0,0,1,.37-1.53c.37-.21,9.14-5.2,16.29-1.72a1.06,1.06,0,0,1,.5,1.5,1.27,1.27,0,0,1-1.63.46c-5.93-2.89-13.78,1.58-13.86,1.63A1.37,1.37,0,0,1,208.94,182.8Z" transform="translate(-28.33 -110.35)"/><path class="cls-24" d="M233.6,181.38a1.26,1.26,0,0,1-1-.46,1,1,0,0,1,.28-1.54c.41-.27,10.05-6.53,15.36-.78a1,1,0,0,1-.14,1.56,1.28,1.28,0,0,1-1.7-.14c-3.88-4.19-12,1.1-12.11,1.15A1.2,1.2,0,0,1,233.6,181.38Z" transform="translate(-28.33 -110.35)"/><path class="cls-9" d="M228.35,217.11a12.22,12.22,0,0,1-7.23-2.51.72.72,0,0,1-.05-1.09.91.91,0,0,1,1.19,0,9.6,9.6,0,0,0,10.94.7.89.89,0,0,1,1.17.22.74.74,0,0,1-.24,1.08A11.16,11.16,0,0,1,228.35,217.11Z" transform="translate(-28.33 -110.35)"/><path class="cls-23" d="M217.68,199.54A3.89,3.89,0,1,1,213.8,196,3.72,3.72,0,0,1,217.68,199.54Z" transform="translate(-28.33 -110.35)"/><path class="cls-23" d="M249.16,198.91a3.89,3.89,0,1,1-3.87-3.54A3.73,3.73,0,0,1,249.16,198.91Z" transform="translate(-28.33 -110.35)"/><path class="cls-26" d="M772.52,359.22a6.81,6.81,0,0,0-4-.77,5.9,5.9,0,0,0,6.57,3.95A6.79,6.79,0,0,0,772.52,359.22Z" transform="translate(-28.33 -110.35)"/><path class="cls-26" d="M782.29,388.34h-11a2.48,2.48,0,0,0,0,5h11a2.48,2.48,0,0,0,0-5Z" transform="translate(-28.33 -110.35)"/><path class="cls-26" d="M853,351.42H768a7.53,7.53,0,0,0-7.53,7.53h0v41.39a7.53,7.53,0,0,0,7.53,7.52h85a7.52,7.52,0,0,0,7.52-7.52h0V359a7.53,7.53,0,0,0-7.52-7.53Zm-87.05,5.14A10.37,10.37,0,0,1,778,363.81l.13.41-.43.08a11.31,11.31,0,0,1-1.84.13,11,11,0,0,1-5.6-1.41,11.89,11.89,0,0,1-4.61-6l-.13-.42ZM784.36,395H769.2a4.17,4.17,0,0,1,0-8.33h15.16a4.17,4.17,0,0,1,0,8.33Zm68.94-.75a4.56,4.56,0,0,1-4.55,4.54H837.39a4.56,4.56,0,0,1-4.55-4.54v-6.82a4.57,4.57,0,0,1,4.55-4.55h11.36a4.57,4.57,0,0,1,4.55,4.55Z" transform="translate(-28.33 -110.35)"/><path class="cls-27" d="M841,392.9h-4.92a1.33,1.33,0,0,0,0,2.65H841a1.33,1.33,0,1,0,0-2.65Zm0,1.89h-4.92a.57.57,0,1,1,0-1.13H841a.57.57,0,1,1,0,1.13Z" transform="translate(-28.33 -110.35)"/><path class="cls-27" d="M850.08,392.9h-4.93a1.33,1.33,0,0,0,0,2.65h4.93a1.33,1.33,0,0,0,0-2.65Zm0,1.89h-4.93a.57.57,0,1,1,0-1.13h4.93a.57.57,0,0,1,0,1.13Z" transform="translate(-28.33 -110.35)"/><path class="cls-27" d="M841,389.49h-4.92a1.33,1.33,0,0,0,0,2.65H841a1.33,1.33,0,1,0,0-2.65Zm0,1.9h-4.92a.58.58,0,0,1-.57-.57.57.57,0,0,1,.57-.57H841a.56.56,0,0,1,.57.57A.57.57,0,0,1,841,391.39Z" transform="translate(-28.33 -110.35)"/><path class="cls-27" d="M850.08,389.49h-4.93a1.33,1.33,0,0,0,0,2.65h4.93a1.33,1.33,0,0,0,0-2.65Zm0,1.9h-4.93a.58.58,0,0,1-.57-.57.57.57,0,0,1,.57-.57h4.93a.56.56,0,0,1,.56.57.57.57,0,0,1-.56.57Z" transform="translate(-28.33 -110.35)"/><path class="cls-27" d="M841,386.08h-4.92a1.33,1.33,0,1,0,0,2.65H841a1.33,1.33,0,1,0,0-2.65Zm0,1.9h-4.92a.58.58,0,0,1-.57-.57.57.57,0,0,1,.57-.57H841a.56.56,0,0,1,.57.57A.57.57,0,0,1,841,388Z" transform="translate(-28.33 -110.35)"/><path class="cls-27" d="M850.08,386.08h-4.93a1.33,1.33,0,1,0,0,2.65h4.93a1.33,1.33,0,0,0,0-2.65Zm0,1.9h-4.93a.58.58,0,0,1-.57-.57.57.57,0,0,1,.57-.57h4.93a.56.56,0,0,1,.56.57.57.57,0,0,1-.56.57Z" transform="translate(-28.33 -110.35)"/></g></g></svg>