<svg id="Layer_1" data-name="Layer 1" xmlns="http://www.w3.org/2000/svg" viewBox="0 0 160.37 103.85"><defs><style>.cls-1{fill:#f3f3f3;opacity:0.39;}.cls-2{fill:#302e41;}.cls-3{fill:#f9b7b9;}.cls-4,.cls-6{fill:#010101;}.cls-4{opacity:0.1;}.cls-4,.cls-6,.cls-8{isolation:isolate;}.cls-5{fill:#585b8a;}.cls-6,.cls-8{opacity:0.2;}.cls-7{fill:#6153a3;}.cls-15,.cls-16,.cls-17,.cls-8,.cls-9{fill:none;}.cls-8{stroke:#010101;stroke-width:0.29px;}.cls-15,.cls-8,.cls-9{stroke-miterlimit:10;}.cls-15,.cls-16,.cls-17,.cls-9{stroke:#403e56;}.cls-9{stroke-width:0.9px;}.cls-10{fill:#403e56;}.cls-11{fill:#9f626b;}.cls-12{fill:#d1cde2;}.cls-13{fill:#6466af;}.cls-14{fill:#56b894;}.cls-15{stroke-width:0.4px;}.cls-16{stroke-miterlimit:10;stroke-width:0.4px;}.cls-17{stroke-miterlimit:10;stroke-width:0.4px;}</style></defs><title>circle-icon1</title><ellipse class="cls-1" cx="21.6" cy="100.4" rx="21.6" ry="3.46"/><ellipse class="cls-1" cx="126.96" cy="94.99" rx="33.42" ry="5.35"/><path class="cls-2" d="M289.34,332.69s.29.95-1.32,1.8-2.09,4.08-.19,5,2.46,2.18,1.51,3-2.65,3.13-.37,3.7,2.56,1.71,1.89,2.18,1.52-.85,1.52-.85.38,2.27,2.37,1.71,7.59-11.38,4.74-12.9S289.34,332.69,289.34,332.69Z" transform="translate(-169.81 -289.09)"/><path class="cls-3" d="M292.78,341.85s1,3.44-.74,3.69a6.68,6.68,0,0,0-3,1.22l3.2,4.19h5.9l3.69-3.69s-4.92-3.69-3.93-5.91S292.78,341.85,292.78,341.85Z" transform="translate(-169.81 -289.09)"/><path class="cls-4" d="M292.78,341.85s1,3.44-.74,3.69a6.68,6.68,0,0,0-3,1.22l3.2,4.19h5.9l3.69-3.69s-4.92-3.69-3.93-5.91S292.78,341.85,292.78,341.85Z" transform="translate(-169.81 -289.09)"/><polygon class="cls-3" points="124.44 95.55 130.1 97.52 134.04 97.76 133.79 94.32 125.67 91.92 124.44 95.55"/><path class="cls-5" d="M301.51,383.9s0,3.44.49,3.44,7.14-.73,9.1,0,4.92-2,3.45-3.44-3.89-3.69-5.39-3.2-7.65,1.72-7.65,1.72Z" transform="translate(-169.81 -289.09)"/><path class="cls-5" d="M283.44,380.7s-2.95,5.91-1,6.4a6.89,6.89,0,0,0,4.43-.49c.25-.25,3.69-1.23,4.18-.74s.49-2,.49-2Z" transform="translate(-169.81 -289.09)"/><path class="cls-2" d="M285.9,372.59s-4.68,6.39-1.23,8.11,19.92,1.72,21.15,0,1.72-7.13,0-7.62S285.9,372.59,285.9,372.59Z" transform="translate(-169.81 -289.09)"/><path class="cls-6" d="M285.9,372.59s-4.68,6.39-1.23,8.11,19.92,1.72,21.15,0,1.72-7.13,0-7.62S285.9,372.59,285.9,372.59Z" transform="translate(-169.81 -289.09)"/><circle class="cls-3" cx="124.94" cy="48.82" r="5.66"/><path class="cls-7" d="M285.9,346.76l4.91-1S292,349.72,296,349s4.92-3.2,4.92-3.2,3,1.23,3.19,1.23,3.45,1.23,3.45,2-3.69,8.11-3.69,8.11l.49,13.28-18.2-.49,1.23-13Z" transform="translate(-169.81 -289.09)"/><path class="cls-3" d="M283.19,353.16s-1.47,13-.49,14,4.92,3.69,4.92,3.69v-3l-2-3.68,2-8.61Z" transform="translate(-169.81 -289.09)"/><path class="cls-3" d="M308.64,352.79s-.86,13.4-.86,13.9-2.21,2.21-2.95,2.21-1.23-1.23-1.23-1.23l1.72-2-1.23-10.08Z" transform="translate(-169.81 -289.09)"/><path class="cls-2" d="M306.31,371.6s11.07-6.14,11.31,0-5.66,8.61-5.66,8.61-15.24,4.57-15.86,2.9-1.84-4.37-.86-4.62,2.21-.74,2.71-.25,6.64-3.68,6.64-3.68Z" transform="translate(-169.81 -289.09)"/><path class="cls-8" d="M311.47,370.87a13.92,13.92,0,0,0-3,1.72,19,19,0,0,1-3.93,2" transform="translate(-169.81 -289.09)"/><path class="cls-7" d="M287.37,347.26l-1.47-.5s-5.41,5.66-3.69,7.14,2.7,2,3.19,2.46,3,.73,3,.73Z" transform="translate(-169.81 -289.09)"/><path class="cls-7" d="M305.32,348.49l2.22.49a36.14,36.14,0,0,0,2.21,4.18c.49.49-.74.25-1.47,1.23s-1.48,2.7-3,2.7-3.44-2.46-3.44-2.46Z" transform="translate(-169.81 -289.09)"/><path class="cls-2" d="M286.39,373.82s-9.35-6.64-12.54-1.72,13.77,11.55,16.23,12.54,4.67,2,4.67,2,2.21-5.41,2.21-6.4-1.72-1-2.21-1-2.71-.49-3.2-1.23S286.39,373.82,286.39,373.82Z" transform="translate(-169.81 -289.09)"/><path class="cls-8" d="M281.22,372.1a14.38,14.38,0,0,0,4.68,2.46,4.57,4.57,0,0,1,3,1.72" transform="translate(-169.81 -289.09)"/><path class="cls-5" d="M284.69,362.85l.2,10.41a1.3,1.3,0,0,0,1.32,1.28l19.37-.22a1.29,1.29,0,0,0,1.29-1.23l.59-10.19a1.31,1.31,0,0,0-1.23-1.38H286a1.3,1.3,0,0,0-1.3,1.3Z" transform="translate(-169.81 -289.09)"/><path class="cls-2" d="M295.05,330.81s.32,1.05-1.47,2-2.31,4.52-.21,5.57,2.73,2.42,1.68,3.36-2.94,3.47-.42,4.1,2.84,1.89,2.1,2.42,1.68-.95,1.68-.95.42,2.52,2.63,1.89,4.41-12.09,1.95-15C300.7,331.41,295.05,330.81,295.05,330.81Z" transform="translate(-169.81 -289.09)"/><path class="cls-2" d="M294.38,329.72c0-1.53,4.61-.43,6.58,1.72,1.37,1.49,3.44,3.73,1.7,5.31s3,3.64,4.25,4.27,3.77,2.55,1.51,3.83-2.22,2.59-1.37,2.9-1.87-.46-1.87-.46.27,2.54-2,2.53-8.88-12.62-7.31-16.13C297.32,330.43,294.38,329.72,294.38,329.72Z" transform="translate(-169.81 -289.09)"/><path class="cls-2" d="M295.38,329.39c-6.16-.37-6.78,4.26-6.78,4.26,0,2.68,4.3,1.38,5.49,1.78,1.43-1,4.18-3,6.14-4.36A9.2,9.2,0,0,0,295.38,329.39Z" transform="translate(-169.81 -289.09)"/><path class="cls-9" d="M293.62,359s-5.52-25.89-40.09-44.67" transform="translate(-169.81 -289.09)"/><polygon class="cls-10" points="85.14 24.65 85.21 24.93 83.81 25.27 84.25 26.64 83.97 26.73 83.44 25.06 85.14 24.65"/><path class="cls-2" d="M200.57,384.57l.93-.69s.62,3.44-.07,3.95-3.27,1.38-3.27,2.41-5.84,2.41-6,.86a3.41,3.41,0,0,1,.52-2.41s2.75-2.75,3.1-3.26,1.2-1.55,1.2-1.55Z" transform="translate(-169.81 -289.09)"/><path class="cls-2" d="M186.81,341.75s0,.15.07.42l.17,1c.72,4.4,2.83,17.38,2.69,17.81s-1.38,2.4,0,2.92a1,1,0,0,1,.42.47,9.56,9.56,0,0,1,.73,1.71,76,76,0,0,1,2.21,8.83c.22,1.16.37,2.09.41,2.58a1.29,1.29,0,0,1,0,.34c-.17.69,1,3.1,1.55,3.78s1.37,1.38,1.2,2.07,4.3,2.58,4.82,1.37a22.23,22.23,0,0,0,.68-2.23c.18-.35.35-2.75-.51-3.1s-.35-6.36-1.21-7.56a17.45,17.45,0,0,1-1.18-3.39c-.18-.64-.36-1.33-.54-2-.73-2.8-1.37-5.61-1.37-5.61l.17-20.12-9.46-1.2-.24.53-.48,1.06Z" transform="translate(-169.81 -289.09)"/><path class="cls-2" d="M186.3,374.76s-1.38-1.37-2.07,0-1.37,6.71-2.58,7.92-2.75,7.22-1,7.56,3.61-.51,3.79-1.55,3.78-6.36,3.78-6.87-2.41-2.41-2.41-2.41Z" transform="translate(-169.81 -289.09)"/><path class="cls-2" d="M207.45,332.29s-2.24,20.12-2.75,22-3.27,9.11-4.13,10.32-6.36,11-7,11.52-2.06,1.89-2.06,1.89-2.58,2.58-2.93,3.1-3.26-1-3.44-2.07a10.72,10.72,0,0,1,.35-3.44c.17-.68-.35-1.72.17-2.23s3.09-3.1,3.09-4.3,4.48-8.25,6.2-9.8a5.12,5.12,0,0,0,1.37-4.13V344.67l-9.46-2.92s.52-8.26,1.72-8.26S205.56,330.74,207.45,332.29Z" transform="translate(-169.81 -289.09)"/><circle class="cls-11" cx="23.71" cy="8.81" r="5.67"/><path class="cls-11" d="M195.41,302.37s.69,2.58,1.55,3.26-2.24,3.61-2.24,3.61l-5.84.35-1-3.27s1.9-3.78,1.38-6.19S195.41,302.37,195.41,302.37Z" transform="translate(-169.81 -289.09)"/><path class="cls-7" d="M197.82,305.29s-1.55.17-1.89.69a6.21,6.21,0,0,1-4.65,1.72c-1.89-.35-3.09-.86-3.44-.69s-1,3.78-1,3.78l1.89,5.51-.34,15.13-.52,4.13s-1-1.38,3.1-.52,9.46-.69,11.18-.86,4.64-.69,4.81-1.72a26.51,26.51,0,0,0-.51-4.81l-2.75-11.53L202,309.93Z" transform="translate(-169.81 -289.09)"/><path class="cls-12" d="M196.19,304.51s1.46-.77,2-.08,7.05,1.72,7.05,2.23,1.38,14.45,1,15.65a3.47,3.47,0,0,0,.68,2.58l1.21,5.16s3.26,9.81,1.89,10.15a9.08,9.08,0,0,1-3.1,0c-.51,0-.34-6.54-1.72-8.26a39.45,39.45,0,0,1-3.61-6.87c-.34-.86-4.64-12.73-4.47-14.11S196.19,304.51,196.19,304.51Z" transform="translate(-169.81 -289.09)"/><path class="cls-12" d="M189.05,305.29s-1.38,0-1.55.34a18.55,18.55,0,0,1-2.58,3.1c-.69.51-3.09,2.75-3.09,3.27s5,4.3,5,4.3,2.07,10.14,1,13.58-2.57,11.69-1.89,12.21,2.24.69,2.24,0,1-8.08,1.89-9.63,3.44-11.35,2.41-14.1S189.05,305.29,189.05,305.29Z" transform="translate(-169.81 -289.09)"/><path class="cls-11" d="M211.75,322.31s.17,5.34-1.72,8.09a33,33,0,0,0-3.1,5.84s-3.09-.86-3.61-1.89-3.78-.17-3.78-.51,4-2.07,4.3-2.41,1.55-.35,2.23-1a4.55,4.55,0,0,0,.86-2.24l.69-4.47Z" transform="translate(-169.81 -289.09)"/><path class="cls-2" d="M197.43,294.4a3.2,3.2,0,0,0,1.27-.3,1.7,1.7,0,0,0,.44-2.52,3.64,3.64,0,0,0-.61-.49l-1.3-.88a6.1,6.1,0,0,0-1.85-1,5.93,5.93,0,0,0-1.88-.12,13.07,13.07,0,0,0-3.62.66,6,6,0,0,0-2.92,2.14,6.42,6.42,0,0,0-.51,5.61,19.08,19.08,0,0,0,2.9,5l.6-2.89a1.05,1.05,0,0,1,.33-.69c.53-.38,1.18.4,1.84.39a1.1,1.1,0,0,0,.93-.73,4,4,0,0,0,.2-1.24,3.37,3.37,0,0,1,1.23-2.6C195.26,294.34,196.55,294.48,197.43,294.4Z" transform="translate(-169.81 -289.09)"/><path class="cls-4" d="M197.11,341.89s-.58,16.8-.92,17.31,0-17.37,0-17.37Z" transform="translate(-169.81 -289.09)"/><path class="cls-12" d="M203.84,306.66h1.37s5.85,7.92,5.16,8.43,0,1.89,0,1.89l1.38,2.58s1.72,1.55,1.2,1.89a6.48,6.48,0,0,0-1.2,1.72s-3.44-.51-4.47,1.55l-2.23-2.81Z" transform="translate(-169.81 -289.09)"/><rect class="cls-2" x="201.23" y="309.82" width="5.11" height="9.52" transform="translate(-274.46 -187.49) rotate(-22.44)"/><ellipse class="cls-13" cx="203.41" cy="313.5" rx="1.02" ry="0.94" transform="translate(-274.07 -187.72) rotate(-22.44)"/><path class="cls-11" d="M200.4,320.42S188,330.74,186,327.47s2.24-6,2.24-6a15.05,15.05,0,0,0,8.08-2.58l4.3-1.89s3.93-5.6,5.26-3.47S203.55,319.36,200.4,320.42Z" transform="translate(-169.81 -289.09)"/><path class="cls-12" d="M183.72,311.31l-1.89.69v5.16l-.69,1s.17,2.06.69,2.58,1.54.34,1.2,1.54a6.34,6.34,0,0,0-.17,2.41s3.09,4,3.27,3.44,2.57-6.88,2.92-6.88-3.44-10-3.44-10Z" transform="translate(-169.81 -289.09)"/><path class="cls-2" d="M206.33,337.36s1.78-1.72.89-1.8-4-1.81-4.5-.95S206.33,337.36,206.33,337.36Z" transform="translate(-169.81 -289.09)"/><ellipse class="cls-14" cx="69.5" cy="10.82" rx="3.42" ry="1.81"/><path class="cls-15" d="M252.37,305.93a31.65,31.65,0,0,0-23.1,0v-9.44a40,40,0,0,1,23.1,0Z" transform="translate(-169.81 -289.09)"/><path class="cls-15" d="M249.16,304a22.87,22.87,0,0,0-16.68,0v-6.82a28.89,28.89,0,0,1,16.68,0Z" transform="translate(-169.81 -289.09)"/><ellipse class="cls-15" cx="70.71" cy="10.01" rx="3.42" ry="1.81"/><ellipse class="cls-14" cx="241.46" cy="311.27" rx="3.42" ry="1.81" transform="translate(-227.18 -234.51) rotate(-11.54)"/><path class="cls-15" d="M255.46,314.56a31.66,31.66,0,0,0-22.63,4.62l-1.89-9.25a40,40,0,0,1,22.64-4.62Z" transform="translate(-169.81 -289.09)"/><path class="cls-15" d="M251.92,313.29a22.86,22.86,0,0,0-16.33,3.33L234.22,310a28.84,28.84,0,0,1,16.34-3.34Z" transform="translate(-169.81 -289.09)"/><ellipse class="cls-16" cx="242.48" cy="310.24" rx="3.42" ry="1.81" transform="translate(-226.95 -234.33) rotate(-11.54)"/><ellipse class="cls-14" cx="240.76" cy="322.5" rx="1.81" ry="3.42" transform="translate(-267.5 251.2) rotate(-86.02)"/><path class="cls-15" d="M253.36,329.42a31.67,31.67,0,0,0-23-1.6l.65-9.42A40,40,0,0,1,254,320Z" transform="translate(-169.81 -289.09)"/><path class="cls-15" d="M250.29,327.25a22.89,22.89,0,0,0-16.63-1.16l.47-6.79a28.9,28.9,0,0,1,16.64,1.15Z" transform="translate(-169.81 -289.09)"/><ellipse class="cls-17" cx="242.01" cy="321.79" rx="1.81" ry="3.42" transform="translate(-265.61 251.79) rotate(-86.02)"/><path class="cls-9" d="M230.36,307.78s-10.72-1.47-18.38,3" transform="translate(-169.81 -289.09)"/><polygon class="cls-10" points="42.42 20.2 42.7 20.29 42.27 21.66 43.66 22 43.6 22.28 41.89 21.88 42.42 20.2"/></svg>